<svg width="20" height="20" viewBox="0 0 20 20" fill="none" xmlns="http://www.w3.org/2000/svg">
<path opacity="0.4" d="M17.7083 7.62503C17.3 6.97503 16.8333 6.3917 16.35 5.8667L13.2083 9.00837C13.3083 9.3167 13.3667 9.65003 13.3667 10C13.3667 11.8667 11.8583 13.3667 10 13.3667C9.65 13.3667 9.31667 13.3084 9.00833 13.2084L6.125 16.0917C7.34167 16.775 8.65833 17.1334 10 17.1334C11.4833 17.1334 12.925 16.7 14.2417 15.8917C15.5583 15.075 16.7417 13.8834 17.7083 12.3667C18.5417 11.0667 18.5417 8.93337 17.7083 7.62503Z" fill="#716972"/>
<path d="M11.6834 8.3167L8.3167 11.6834C7.8917 11.25 7.6167 10.65 7.6167 10C7.6167 8.6917 8.68337 7.6167 10 7.6167C10.65 7.6167 11.25 7.8917 11.6834 8.3167Z" fill="#716972"/>
<path opacity="0.4" d="M15.2082 4.79173L12.3832 7.61673C11.7748 7.00006 10.9332 6.6334 9.99984 6.6334C8.13317 6.6334 6.63317 8.14173 6.63317 10.0001C6.63317 10.9334 7.00817 11.7751 7.6165 12.3834L4.79984 15.2084H4.7915C3.8665 14.4584 3.0165 13.5001 2.2915 12.3667C1.45817 11.0584 1.45817 8.9334 2.2915 7.62506C3.25817 6.1084 4.4415 4.91673 5.75817 4.10007C7.07484 3.30007 8.5165 2.8584 9.99984 2.8584C11.8582 2.8584 13.6582 3.54173 15.2082 4.79173Z" fill="#716972"/>
<path d="M12.3834 10.0001C12.3834 11.3084 11.3167 12.3834 10.0001 12.3834C9.95007 12.3834 9.9084 12.3834 9.8584 12.3667L12.3667 9.8584C12.3834 9.9084 12.3834 9.95007 12.3834 10.0001Z" fill="#716972"/>
<path d="M18.1417 1.8584C17.8917 1.6084 17.4834 1.6084 17.2334 1.8584L1.8584 17.2417C1.6084 17.4917 1.6084 17.9001 1.8584 18.1501C1.9834 18.2667 2.14173 18.3334 2.3084 18.3334C2.47507 18.3334 2.6334 18.2667 2.7584 18.1417L18.1417 2.7584C18.4001 2.5084 18.4001 2.1084 18.1417 1.8584Z" fill="#716972"/>
</svg>
